<svg width="16" height="16" viewBox="0 0 16 16" fill="none" xmlns="http://www.w3.org/2000/svg">
<path fill-rule="evenodd" clip-rule="evenodd" d="M4.38147 2.19484C4.82569 2.04344 5.29073 2.00009 5.70197 2.00009C6.67846 2.00009 7.41468 2.41698 8.00034 2.8354C8.59063 2.41377 9.32194 2.00009 10.3099 2.00009C10.7491 2.00009 11.1985 2.06148 11.6339 2.20633C14.2935 3.06785 15.1502 5.93137 14.4076 8.28355L14.4045 8.29345L14.4011 8.30326C13.9901 9.47631 13.3182 10.5477 12.4365 11.4241L12.4327 11.4279L12.4289 11.4316C11.1977 12.6169 9.81514 13.6877 8.3432 14.5715L7.99569 14.7802L7.65051 14.5677C6.18178 13.6635 4.8253 12.6216 3.57916 11.4266L3.57402 11.4216L3.56899 11.4166C2.69492 10.5418 2.02298 9.4783 1.60593 8.30637L1.60244 8.29657L1.59926 8.28666C0.842357 5.92934 1.70337 3.06926 4.38147 2.19484ZM5.70197 3.33342C5.37309 3.33342 5.06605 3.36965 4.80877 3.45785L4.80382 3.45955L4.79884 3.46117C3.00674 4.04422 2.2727 6.00778 2.86563 7.86926C3.21603 8.84927 3.77819 9.7381 4.50724 10.4692C5.58358 11.5007 6.74798 12.4123 8.00375 13.2153C9.25539 12.4292 10.4367 11.4982 11.5002 10.4749C12.2331 9.74516 12.7944 8.85187 13.1392 7.87239C13.7239 6.00523 12.985 4.0443 11.2209 3.47409L11.2149 3.47217L11.2149 3.47214C10.9325 3.37792 10.6269 3.33342 10.3099 3.33342C9.58271 3.33342 9.07999 3.68341 8.40329 4.19751L7.99934 4.50439L7.59588 4.19687C6.92993 3.6893 6.41619 3.33342 5.70197 3.33342Z" fill="white"/>
</svg>
