<svg width="16" height="16" viewBox="0 0 16 16" fill="none" xmlns="http://www.w3.org/2000/svg">
<g clip-path="url(#clip0_3_886)">
<path d="M11.3333 15.1667H4.66665C2.23331 15.1667 0.833313 13.7667 0.833313 11.3333V8C0.833313 5.56666 2.23331 4.16666 4.66665 4.16666H11.3333C13.7666 4.16666 15.1666 5.56666 15.1666 8V11.3333C15.1666 13.7667 13.7666 15.1667 11.3333 15.1667ZM4.66665 5.16666C2.75998 5.16666 1.83331 6.09333 1.83331 8V11.3333C1.83331 13.24 2.75998 14.1667 4.66665 14.1667H11.3333C13.24 14.1667 14.1666 13.24 14.1666 11.3333V8C14.1666 6.09333 13.24 5.16666 11.3333 5.16666H4.66665Z" fill="white"/>
<path d="M12 3.5H4C3.72667 3.5 3.5 3.27333 3.5 3C3.5 2.72667 3.72667 2.5 4 2.5H12C12.2733 2.5 12.5 2.72667 12.5 3C12.5 3.27333 12.2733 3.5 12 3.5Z" fill="white"/>
<path d="M10 1.83334H6C5.72667 1.83334 5.5 1.60667 5.5 1.33334C5.5 1.06 5.72667 0.833336 6 0.833336H10C10.2733 0.833336 10.5 1.06 10.5 1.33334C10.5 1.60667 10.2733 1.83334 10 1.83334Z" fill="white"/>
<path d="M5.92633 13.2407C5.14633 13.2407 4.513 12.6074 4.513 11.8274C4.513 11.0474 5.14633 10.4141 5.92633 10.4141C6.70631 10.4141 7.33965 11.0474 7.33965 11.8274C7.33965 12.6074 6.70631 13.2407 5.92633 13.2407ZM5.92633 11.4141C5.69967 11.4141 5.513 11.6007 5.513 11.8274C5.513 12.0541 5.69967 12.2407 5.92633 12.2407C6.153 12.2407 6.33966 12.0541 6.33966 11.8274C6.33966 11.6007 6.153 11.4141 5.92633 11.4141Z" fill="white"/>
<path d="M6.83856 12.3267C6.56523 12.3267 6.33856 12.1001 6.33856 11.8267V8.1534C6.33856 7.56673 6.70522 7.0934 7.26522 6.94007L9.09189 6.44007C9.67189 6.28007 10.0386 6.43343 10.2386 6.59343C10.4386 6.74673 10.6786 7.06007 10.6786 7.6534V11.2201C10.6786 11.4934 10.4519 11.7201 10.1786 11.7201C9.90522 11.7201 9.67856 11.4934 9.67856 11.2201V7.6534C9.67856 7.46673 9.63856 7.3934 9.62522 7.38673C9.61189 7.38007 9.53189 7.3534 9.34522 7.40673L7.52522 7.90673C7.35856 7.9534 7.33189 8.06673 7.33189 8.16007V11.8334C7.33856 12.1001 7.11189 12.3267 6.83856 12.3267Z" fill="white"/>
<path d="M9.27271 12.6339C8.49271 12.6339 7.85938 12.0006 7.85938 11.2206C7.85938 10.4406 8.49271 9.80727 9.27271 9.80727C10.0527 9.80727 10.686 10.4406 10.686 11.2206C10.686 12.0006 10.0527 12.6339 9.27271 12.6339ZM9.27271 10.8073C9.04604 10.8073 8.85937 10.9939 8.85937 11.2206C8.85937 11.4473 9.04604 11.6339 9.27271 11.6339C9.49937 11.6339 9.68604 11.4473 9.68604 11.2206C9.68604 10.9939 9.49937 10.8073 9.27271 10.8073Z" fill="white"/>
<path d="M6.83898 9.72107C6.61896 9.72107 6.41894 9.5744 6.35894 9.3544C6.2856 9.08773 6.44562 8.8144 6.71232 8.74107L10.0523 7.82773C10.3256 7.7544 10.5923 7.9144 10.6656 8.18107C10.739 8.44773 10.5789 8.72107 10.3122 8.7944L6.97232 9.70773C6.92565 9.7144 6.88565 9.72107 6.83898 9.72107Z" fill="white"/>
</g>
<defs>
<clipPath id="clip0_3_886">
<rect width="16" height="16" fill="white"/>
</clipPath>
</defs>
</svg>
